<svg width="16" height="16" viewBox="0 0 16 16" fill="none" xmlns="http://www.w3.org/2000/svg">
<path d="M12.4001 1.40137C13.1334 1.40137 13.7334 2.00137 13.7334 2.7347V4.20137C13.7334 4.7347 13.4001 5.40137 13.0667 5.7347L10.2001 8.26803C9.80006 8.60137 9.53339 9.26803 9.53339 9.80137V12.668C9.53339 13.068 9.26672 13.6014 8.93339 13.8014L8.00006 14.4014C7.13339 14.9347 5.93339 14.3347 5.93339 13.268V9.7347C5.93339 9.26803 5.66672 8.66803 5.40006 8.3347L2.86672 5.66803C2.53339 5.3347 2.26672 4.7347 2.26672 4.3347V2.80137C2.26672 2.00137 2.86672 1.40137 3.60006 1.40137H9.60006M7.28672 1.40137L4.00006 6.66803" stroke="white" stroke-width="1.5" stroke-miterlimit="10" stroke-linecap="round" stroke-linejoin="round"/>
</svg>
