<svg width="21" height="22" viewBox="0 0 21 22" fill="none" xmlns="http://www.w3.org/2000/svg">
<path d="M9.65179 5.441V8.771M18.2418 14.17C18.9718 15.39 18.3918 16.97 17.0418 17.42C12.2605 19.01 7.09307 19.01 2.31179 17.42C0.871788 16.94 0.321788 15.48 1.11179 14.17L2.38179 12.05C2.73179 11.47 3.01179 10.44 3.01179 9.77V7.67C3.01047 6.79456 3.18177 5.92744 3.51588 5.11826C3.84999 4.30907 4.34035 3.5737 4.95892 2.9542C5.57749 2.33471 6.31212 1.84324 7.1208 1.50792C7.92948 1.1726 8.79634 0.999999 9.67179 1C13.3318 1 16.3318 4 16.3318 7.66V9.76C16.3318 9.94 16.3518 10.14 16.3818 10.35" stroke="white" stroke-width="1.5" stroke-miterlimit="10" stroke-linecap="round"/>
<path d="M12.9818 17.82C12.9818 19.65 11.4818 21.15 9.65178 21.15C8.74178 21.15 7.90178 20.77 7.30178 20.17C6.70178 19.57 6.32178 18.73 6.32178 17.82" stroke="white" stroke-width="1.5" stroke-miterlimit="10"/>
<circle cx="16.6519" cy="4" r="4" fill="#FA3636"/>
</svg>
